<group>
loop_mode=no_loop
ampeg_release=0.250

<region>
sample=MuteTrumpet.An2.wav
pitch_keycenter=57
lokey=0
hikey=57
tune=0

<region>
sample=MuteTrumpet.As2.wav
pitch_keycenter=58
lokey=58
hikey=58
tune=0

<region>
sample=MuteTrumpet.Bn2.wav
pitch_keycenter=59
lokey=59
hikey=59
tune=0

<region>
sample=MuteTrumpet.Cn3.wav
pitch_keycenter=60
lokey=60
hikey=60
tune=0

<region>
sample=MuteTrumpet.Cs3.wav
pitch_keycenter=61
lokey=61
hikey=61
tune=0

<region>
sample=MuteTrumpet.Dn3.wav
pitch_keycenter=62
lokey=62
hikey=62
tune=0

<region>
sample=MuteTrumpet.Ds3.wav
pitch_keycenter=63
lokey=63
hikey=63
tune=0

<region>
sample=MuteTrumpet.En3.wav
pitch_keycenter=64
lokey=64
hikey=64
tune=0

<region>
sample=MuteTrumpet.Fn3.wav
pitch_keycenter=65
lokey=65
hikey=65
tune=0

<region>
sample=MuteTrumpet.Fs3.wav
pitch_keycenter=66
lokey=66
hikey=66
tune=0

<region>
sample=MuteTrumpet.Gn3.wav
pitch_keycenter=67
lokey=67
hikey=67
tune=0

<region>
sample=MuteTrumpet.Gs3.wav
pitch_keycenter=68
lokey=68
hikey=68
tune=0

<region>
sample=MuteTrumpet.An3.wav
pitch_keycenter=69
lokey=69
hikey=69
tune=0

<region>
sample=MuteTrumpet.As3.wav
pitch_keycenter=70
lokey=70
hikey=70
tune=0

<region>
sample=MuteTrumpet.Bn3.wav
pitch_keycenter=71
lokey=71
hikey=71
tune=0

<region>
sample=MuteTrumpet.Cn4.wav
pitch_keycenter=72
lokey=72
hikey=72
tune=0

<region>
sample=MuteTrumpet.Cs4.wav
pitch_keycenter=73
lokey=73
hikey=73
tune=0

<region>
sample=MuteTrumpet.Dn4.wav
pitch_keycenter=74
lokey=74
hikey=74
tune=0

<region>
sample=MuteTrumpet.Ds4.wav
pitch_keycenter=75
lokey=75
hikey=75
tune=0

<region>
sample=MuteTrumpet.En4.wav
pitch_keycenter=76
lokey=76
hikey=76
tune=0

<region>
sample=MuteTrumpet.Fn4.wav
pitch_keycenter=77
lokey=77
hikey=77
tune=0

<region>
sample=MuteTrumpet.Fs4.wav
pitch_keycenter=78
lokey=78
hikey=127
tune=0


